<!-- icon666.com - MILLIONS vector ICONS FREE --><svg enable-background="new 0 0 32 32" viewBox="0 0 32 32" xmlns="http://www.w3.org/2000/svg"><g id="Layer_24"><path d="m23.183 12.81c.596-.647.925-1.359.925-2.09 0-.73-.33-1.443-.926-2.091.588-.636.922-1.344.922-2.098 0-2.821-4.561-5.031-10.383-5.031s-10.382 2.21-10.382 5.031c0 .756.336 1.466.928 2.104-.598.641-.928 1.35-.928 2.085 0 .738.333 1.451.933 2.091-.601.642-.933 1.354-.933 2.09 0 .74.335 1.454.936 2.094-.6.651-.932 1.368-.932 2.105 0 .74.332 1.45.928 2.083-.598.643-.928 1.354-.928 2.087 0 2.826 4.56 5.04 10.38 5.04 1.137 0 2.25-.085 3.311-.252.619-.098.489-1.088-.156-.988-1.009.159-2.07.24-3.154.24-5.084 0-9.38-1.851-9.38-4.04 0-.49.235-.969.675-1.431 1.871 1.411 5.132 2.282 8.705 2.282.906 0 1.806-.056 2.674-.166.621-.08.52-1.082-.127-.992-.825.105-1.683.158-2.547.158-3.579 0-6.805-.887-8.427-2.322-.435-.369-.953-.962-.953-1.699 0-.575.316-1.069.663-1.442 1.133.858 2.787 1.52 4.839 1.924 1.272.229 2.577.347 3.878.347s2.605-.117 3.885-.348c2-.391 3.692-1.067 4.839-1.92.287.308.483.628.583.952.188.617 1.146.331.956-.293-.144-.467-.413-.913-.8-1.332.594-.647.922-1.358.922-2.087-.001-.731-.33-1.443-.926-2.091zm-17.888-.384c-.437-.373-.956-.972-.956-1.706 0-.574.317-1.06.664-1.426 1.834 1.374 5.019 2.268 8.718 2.268 3.704 0 6.891-.896 8.725-2.274.345.37.662.86.662 1.431 0 .728-.514 1.332-.945 1.71-1.003.881-2.688 1.587-4.739 1.986-2.436.441-4.973.439-7.393.002-2.07-.406-3.75-1.11-4.736-1.991zm8.427-9.926c5.086 0 9.383 1.846 9.383 4.031s-4.297 4.031-9.383 4.031c-3.606 0-6.807-.93-8.369-2.249-.002-.001-.002-.003-.003-.004-.008-.009-.018-.012-.025-.02-.624-.535-.986-1.131-.986-1.758 0-2.185 4.297-4.031 9.383-4.031zm3.702 16.097c-2.428.439-4.98.438-7.393.002-2.071-.409-3.751-1.114-4.736-1.993-.437-.373-.956-.972-.956-1.706 0-.574.318-1.061.665-1.426 1.133.86 2.79 1.523 4.842 1.926 1.276.23 2.581.348 3.878.348s2.602-.117 3.885-.349c2.003-.391 3.697-1.069 4.844-1.924.343.369.656.857.656 1.425 0 .727-.514 1.331-.945 1.71-.003.002-.006.004-.008.006-.019.016-.042.025-.058.044-.001.001-.001.002-.002.003-1.011.855-2.664 1.542-4.672 1.934z"></path><path d="m23.028 24.363c-.261 0-.474-.212-.474-.473 0-.061.008-.109.031-.165.139-.369.743-.368.886.001.098.26.389.389.645.289.259-.098.388-.387.289-.645-.154-.407-.483-.711-.877-.856v-.398c0-.626-1-.654-1 0v.397c-.394.145-.721.446-.871.841-.068.163-.103.343-.103.535 0 .813.661 1.473 1.474 1.473.261 0 .473.213.473.474 0 .054-.012.118-.031.173-.14.374-.745.371-.883.001-.097-.26-.387-.392-.643-.295-.259.097-.391.384-.295.643.155.417.481.721.879.864v.394c0 .626 1 .654 1 0v-.394c.398-.143.724-.449.883-.875.06-.173.09-.345.09-.511 0-.812-.66-1.473-1.473-1.473z"></path><path d="m23.028 30.5c-3.106 0-5.634-2.527-5.634-5.633s2.527-5.634 5.634-5.634c3.105 0 5.633 2.527 5.633 5.634 0 3.106-2.527 5.633-5.633 5.633zm0-10.267c-2.555 0-4.634 2.079-4.634 4.634s2.079 4.633 4.634 4.633 4.633-2.078 4.633-4.633-2.078-4.634-4.633-4.634z"></path></g></svg>