<!-- icon666.com - MILLIONS vector ICONS FREE --><svg clip-rule="evenodd" fill-rule="evenodd" image-rendering="optimizeQuality" shape-rendering="geometricPrecision" text-rendering="geometricPrecision" viewBox="0 0 512 512" xmlns="http://www.w3.org/2000/svg" xmlns:xodm="http://www.corel.com/coreldraw/odm/2003"><g id="Layer_x0020_1"><path d="m256 0c141.39 0 256 114.61 256 256s-114.61 256-256 256-256-114.61-256-256 114.61-256 256-256zm-53.56 126.87c-48.16 2.2-73.46 29.3-75.56 75.57-1.6 35.03-1.6 72.09 0 107.12 2.1 46.27 27.4 73.37 75.56 75.57 35.04 1.59 72.09 1.59 107.13 0 46.27-2.12 73.36-27.38 75.56-75.57 1.59-35.04 1.59-72.07 0-107.12-2.16-47.16-28.4-73.41-75.56-75.57-35.04-1.59-72.09-1.59-107.13 0zm106.06 23.39c34.99 1.59 51.66 18.25 53.24 53.25 1.58 34.3 1.58 70.68 0 104.98-1.63 36.01-19.16 51.7-53.24 53.25-34.32 1.57-70.67 1.57-104.99 0-34.09-1.55-51.61-17.24-53.25-53.25-1.57-34.3-1.57-70.68 0-104.98 1.55-34.1 17.25-51.61 53.25-53.25 34.32-1.57 70.67-1.57 104.99 0zm-52.5 149.04c-23.91 0-43.3-19.38-43.3-43.3.01-23.92 19.39-43.3 43.3-43.3 23.92 0 43.31 19.38 43.31 43.3 0 23.91-19.39 43.3-43.31 43.3zm0-110.01c-36.83 0-66.71 29.87-66.71 66.71s29.87 66.71 66.71 66.71c36.85 0 66.71-29.87 66.71-66.71s-29.86-66.71-66.71-66.71zm84.94-2.64c0 8.61-6.98 15.6-15.59 15.6-8.62 0-15.59-6.98-15.59-15.59s6.97-15.59 15.59-15.59c8.61 0 15.59 6.98 15.59 15.58z" fill="#000000" style="fill: rgb(255, 255, 255);"></path></g></svg>