<!-- icon666.com - MILLIONS vector ICONS FREE --><svg id="Layer_3" viewBox="0 0 48 48" xmlns="http://www.w3.org/2000/svg" data-name="Layer 3"><path d="m32.75 21.3259v-3.3259a8.75 8.75 0 0 0 -17.5 0v3.3259a3.7561 3.7561 0 0 0 -3 3.6741v10a3.7544 3.7544 0 0 0 3.75 3.75h16a3.7544 3.7544 0 0 0 3.75-3.75v-10a3.7561 3.7561 0 0 0 -3-3.6741zm-8.75-7.5759a4.2844 4.2844 0 0 1 4.25 4.25v3.25h-8.5v-3.25a4.2548 4.2548 0 0 1 4.25-4.25zm3.7275 20.0684a.7663.7663 0 0 1 -.7275.9316h-6a.7574.7574 0 0 1 -.7275-.9316l.8545-3.4184a3.6949 3.6949 0 0 1 -.877-2.4 3.75 3.75 0 0 1 7.5 0 3.6949 3.6949 0 0 1 -.877 2.4z"></path></svg>