<!-- icon666.com - MILLIONS vector ICONS FREE --><svg id="Layer_3" viewBox="0 0 48 48" xmlns="http://www.w3.org/2000/svg" data-name="Layer 3"><path d="m24 9.25a8.76 8.76 0 0 0 -8.75 8.75 8.75 8.75 0 0 0 17.5 0 8.76 8.76 0 0 0 -8.75-8.75zm0 3.75a3 3 0 1 1 -3 3 3.0046 3.0046 0 0 1 3-3zm4.83 10.39a7.245 7.245 0 0 1 -10.22-.56 6.2563 6.2563 0 0 1 10.78 0 7.3956 7.3956 0 0 1 -.56.56z"></path><path d="m35 29.25h-22a3.7547 3.7547 0 0 0 -3.75 3.75v2a3.7547 3.7547 0 0 0 3.75 3.75h22a3.7547 3.7547 0 0 0 3.75-3.75v-2a3.7547 3.7547 0 0 0 -3.75-3.75zm-18.0557 5.6338a.75.75 0 0 1 0 1.06.76.76 0 0 1 -1.0606 0l-.8837-.8833-.8838.8838a.7608.7608 0 0 1 -1.06 0 .75.75 0 0 1 0-1.06l.8838-.8843-.8838-.8838a.75.75 0 1 1 1.06-1.06l.8838.8838.8838-.8838a.75.75 0 1 1 1.06 1.06l-.8833.8838zm6 0a.75.75 0 0 1 0 1.06.76.76 0 0 1 -1.06 0l-.8843-.8833-.8838.8838a.76.76 0 0 1 -1.06 0 .75.75 0 0 1 0-1.06l.8838-.8843-.8838-.8838a.75.75 0 1 1 1.06-1.06l.8838.8838.8838-.8838a.75.75 0 1 1 1.06 1.06l-.8833.8838zm6 0a.75.75 0 0 1 0 1.06.76.76 0 0 1 -1.0606 0l-.8837-.8833-.8838.8838a.77.77 0 0 1 -1.06 0 .75.75 0 0 1 0-1.06l.8838-.8843-.8838-.8838a.75.75 0 1 1 1.06-1.06l.8838.8838.8838-.8838a.75.75 0 1 1 1.06 1.06l-.8833.8838zm6 0a.75.75 0 0 1 0 1.06.7671.7671 0 0 1 -1.0606 0l-.8837-.8833-.8838.8838a.77.77 0 0 1 -1.06 0 .75.75 0 0 1 0-1.06l.8838-.8843-.8838-.8838a.75.75 0 1 1 1.06-1.06l.8838.8838.8838-.8838a.75.75 0 1 1 1.06 1.06l-.8833.8838z"></path></svg>