<?xml version="1.0" encoding="utf-8"?>
<!DOCTYPE svg PUBLIC "-//W3C//DTD SVG 1.1//EN" "http://www.w3.org/Graphics/SVG/1.1/DTD/svg11.dtd">
<svg version="1.1" xmlns="http://www.w3.org/2000/svg" xmlns:xlink="http://www.w3.org/1999/xlink" x="0px" y="0px" viewBox="0 0 1000 1000" enable-background="new 0 0 1000 1000" xml:space="preserve">
<metadata> Svg Vector Icons : http://www.onlinewebfonts.com/icon </metadata>
<g><g transform="translate(0.000000,511.000000) scale(0.100000,-0.100000)"><path d="M8628.1,4277.4c-203.2-4.8-353.8-19.1-353.8-31.1s38.3-81.3,83.7-153c45.4-71.7,86.1-141.1,88.5-155.4c7.2-23.9-2503.2-1580.3-2548.6-1580.3c-14.3,2.4-444.7,90.8-953.9,200.8l-927.7,198.4L2290.1,1695.3C1340.9,1112,544.8,621.9,523.3,605.1c-40.6-26.3-35.9-40.6,45.4-176.9c50.2-83.7,95.6-150.6,102.8-150.6s777,468.6,1707,1040c930,571.4,1702.3,1040,1716.6,1040c14.3,0,430.3-86.1,925.2-191.3c494.9-105.2,918.1-191.3,942-191.3c21.5,0,626.4,361,1343.6,800.9c717.2,439.9,1314.9,803.3,1331.7,805.7c14.3,4.8,71.7-66.9,129.1-155.4l100.4-162.6l267.8,497.3c148.2,272.5,274.9,504.4,279.7,516.4c4.8,9.6-90.8,14.3-212.8,12C9080,4287,8821.8,4279.8,8628.1,4277.4z"/><path d="M7865.4,1805.3c-592.9-86.1-1025.7-315.6-1025.7-545.1c0-81.3,141.1-215.2,318-306c607.3-303.6,1733.3-315.6,2371.7-21.5c198.4,93.2,306,176.9,346.7,279.7c28.7,64.5,26.3,86.1-12,155.4c-95.6,176.9-502.1,358.6-961.1,427.9C8652,1834,8090.2,1838.8,7865.4,1805.3z"/><path d="M6839.8,540.6V253.7l83.7-93.2c248.7-275,1037.6-451.9,1735.7-387.3c490.1,45.4,860.7,155.4,1092.6,329.9c124.3,93.2,148.2,165,148.2,456.6v263l-148.2-81.3C9008.2,342.2,7588.1,354.1,6933,770.1l-93.3,57.4V540.6z"/><path d="M4525.5-107.3c-471-59.8-908.5-246.3-1016.1-427.9c-165-277.4,380.1-573.8,1195.4-650.3c800.9-76.5,1742.9,188.9,1812.2,506.8c52.6,236.7-425.6,492.5-1071.1,573.8C5221.2-76.2,4745.4-78.6,4525.5-107.3z"/><path d="M6839.8-418.1v-294.1l117.2-112.4c191.3-184.1,569-308.4,1104.5-361c511.6-50.2,1152.4,43,1506.2,220C9861.8-822.2,9900-752.9,9900-391.8v263l-93.3-57.4c-346.7-220-977.8-344.3-1604.2-318c-514,21.5-1028,150.6-1271.9,315.6l-90.8,62.2V-418.1z"/><path d="M3468.7-1374.5v-294.1l117.1-112.4c196-188.9,566.6-308.4,1109.3-361c669.4-62.1,1420.1,90.9,1707,349.1l114.8,105.2l7.2,303.6l9.6,303.6l-93.3-62.2c-131.5-90.8-418.4-196.1-702.9-255.8c-212.8-47.8-320.4-55-738.8-55c-418.4,0-526,7.2-738.8,55c-284.5,59.8-569,165-700.5,253.4l-90.8,62.1V-1374.5z"/><path d="M6839.8-1369.7v-286.9l74.1-86.1c480.6-547.5,2407.5-547.5,2914.4,0c55,59.8,59.8,83.7,66.9,349c4.8,155.4,4.8,284.5-2.4,284.5s-95.6-43-198.4-95.6c-624-315.6-1774-349.1-2493.6-71.7c-100.4,38.2-222.3,98-270.2,131.5l-90.8,62.1V-1369.7z"/><path d="M1183.1-2017.6C583-2096.5,112-2333.2,112-2555.5c0-200.8,346.7-399.3,891.8-506.9c320.4-64.6,989.8-57.4,1317.3,14.3c344.3,74.1,578.6,174.6,722,313.2c126.7,121.9,143.4,188.9,74.1,286.9c-66.9,95.6-129.1,141.1-306,227.1C2414.4-2031.9,1733-1945.8,1183.1-2017.6z"/><path d="M6839.8-2335.5v-289.3l114.8-110c143.4-138.7,377.7-239.1,722-313.2c329.9-71.7,999.4-78.9,1317.3-14.3c396.9,78.9,679,198.4,822.4,351.4c69.3,74.1,71.7,81.3,78.9,363.4c4.8,157.8,0,284.5-12,279.7c-9.6-4.8-102.8-50.2-203.2-100.4c-370.6-181.7-884.6-270.2-1463.2-248.7c-523.6,19.1-958.7,119.6-1243.2,291.7l-133.9,81.3V-2335.5z"/><path d="M3468.7-2337.9v-277.3l86.1-95.6c480.6-530.8,2386-530.8,2890.5,0c69.3,74.1,71.7,81.3,78.9,363.4c4.8,157.8,0,284.5-12,279.7c-9.6-4.8-100.4-50.2-198.4-98c-702.9-344.3-1929.4-346.7-2629.9,0c-98,47.8-186.5,93.3-196.1,95.6C3475.9-2065.4,3468.7-2184.9,3468.7-2337.9z"/><path d="M102.5-3311l7.2-289.3L222-3703.1c377.7-341.9,1446.4-471,2230.6-272.6c274.9,71.7,509.2,186.5,616.8,303.6l88.5,100.4v277.3c0,153-7.2,272.6-16.7,267.8c-12-4.8-83.7-40.6-162.6-81.3c-375.4-196-867.9-284.5-1470.3-265.4c-554.7,16.7-949.2,105.2-1257.6,279.7c-71.7,38.2-133.9,71.7-143.4,71.7C100.1-3021.7,97.7-3153.2,102.5-3311z"/><path d="M3468.7-3301.4v-279.7l114.8-110c143.4-138.7,377.7-239.1,722-313.2c365.8-78.9,1028-78.9,1386.7,0c344.3,74.1,578.6,176.9,722,313.2l114.8,110v279.7c0,153-4.8,279.7-12,279.7s-69.3-33.5-141.1-71.7c-160.2-90.9-420.8-179.3-681.4-231.9c-289.3-59.8-1102.2-59.8-1391.5,0c-260.6,52.6-521.2,141.1-681.4,231.9c-71.7,38.2-133.9,71.7-141,71.7S3468.7-3148.4,3468.7-3301.4z"/><path d="M6839.8-3289.5c0-353.8,33.5-406.4,346.7-557.1c341.9-162.6,812.9-241.5,1326.9-220c569,26.3,1037.6,160.2,1262.3,363.4l112.4,102.8l7.2,289.3c4.8,157.8,2.4,289.3-7.2,289.3c-7.2,0-59.8-26.3-114.8-59.8c-306-179.3-714.9-272.6-1271.9-291.7c-612-19.1-1104.6,66.9-1482.3,265.4c-78.9,40.7-150.6,76.5-160.2,81.3C6846.9-3021.7,6839.8-3138.9,6839.8-3289.5z"/></g></g>
</svg>