<?xml version="1.0" encoding="utf-8"?>
<!DOCTYPE svg PUBLIC "-//W3C//DTD SVG 1.1//EN" "http://www.w3.org/Graphics/SVG/1.1/DTD/svg11.dtd">
<svg version="1.1" xmlns="http://www.w3.org/2000/svg" xmlns:xlink="http://www.w3.org/1999/xlink" x="0px" y="0px" viewBox="0 0 1000 1000" enable-background="new 0 0 1000 1000" xml:space="preserve">
<metadata> Svg Vector Icons : http://www.onlinewebfonts.com/icon </metadata>
<g><g transform="translate(0.000000,511.000000) scale(0.100000,-0.100000)"><path d="M603.1,4391.6c-52.6-83.7-88.5-157.8-78.9-167.4c9.6-9.6,805.9-499.8,1769.6-1092.8l1750.4-1078.5l949.4,203.3l949.3,203.3l1233.9-758c676.7-416.1,1250.7-770,1272.2-784.4c35.9-23.9,31.1-40.7-55-188.9c-55-88.5-93.3-165-88.5-169.8c4.8-4.8,265.4-16.7,578.7-26.3l569.1-16.7l-133.9,248.7c-74.1,136.3-196.1,363.5-272.6,504.6c-74.2,141.1-143.5,258.3-153.1,258.3c-7.2,0-55-69.3-105.2-155.4c-50.2-86.1-98.1-155.4-107.6-155.4c-9.6,0-595.4,356.3-1303.3,791.5c-710.2,435.2-1310.5,803.5-1336.8,815.4c-35.9,14.3-298.9-31.1-951.7-172.2c-497.4-105.2-927.8-191.3-954.1-191.3c-35.9,0-2783.5,1664.4-3383.7,2049.4C701.2,4542.2,694,4535,603.1,4391.6z"/><path d="M1091,1560.2c-518.9-78.9-918.3-275-978-480.7c-52.6-172.2,246.3-385,695.9-499.8c801.1-203.3,1874.8-69.3,2233.5,275c129.1,124.4,143.5,186.5,74.1,294.1C2894,1486.1,1906.4,1687,1091,1560.2z"/><path d="M3063.8,532c-45.4-33.5-165-90.9-265.4-129.1c-719.8-277.4-1870-243.9-2494.1,71.7c-102.8,52.6-191.3,95.7-198.5,95.7c-7.2,0-7.2-129.1-2.4-284.6c7.2-265.5,12-289.4,67-349.1c191.3-205.6,595.4-346.7,1152.6-399.4c621.7-57.4,1358.3,76.5,1650,298.9C3152.3-25.2,3161.8-1.3,3154.7,312l-7.2,277.4L3063.8,532z"/><path d="M4536.8-340.9c-425.7-55-827.4-210.4-980.4-380.2c-105.2-117.1-110-186.5-12-298.9c141.1-157.8,423.3-282.2,832.2-363.5c284.6-57.4,963.7-57.4,1248.3,0c408.9,81.3,691.1,205.7,832.2,363.5c98,112.4,93.3,181.8-12,298.9C6172.5-419.8,5292.5-245.2,4536.8-340.9z"/><path d="M103.3-668.5c7.2-282.2,9.6-289.3,78.9-363.5c504.6-530.9,2410.4-530.9,2891.1,0l86.1,95.6v277.4c0,153-7.2,272.6-16.7,267.8c-12-2.4-100.4-47.8-198.5-95.6c-691.1-344.3-1927.4-344.3-2630.4,0c-98,47.8-188.9,93.3-198.5,98C103.3-383.9,98.6-510.7,103.3-668.5z"/><path d="M103.3-1632.2l7.2-289.4l112.4-102.8c552.4-499.8,2388.9-478.3,2848.1,31.1l88.5,100.4v277.4c0,153-7.2,272.6-16.7,267.8c-12-4.8-83.7-40.6-162.6-81.3c-172.2-90.9-461.5-184.1-705.4-227.2c-267.8-50.2-1078.5-43-1341.5,9.6c-260.6,52.6-521.3,141.1-681.5,232c-71.7,38.3-133.9,71.7-143.5,71.7C100.9-1342.8,98.6-1474.4,103.3-1632.2z"/><path d="M3470.3-1622.6v-279.8l114.8-110c143.5-138.7,377.8-239.1,722.2-313.2c210.4-45.4,325.2-55,693.5-55c368.3,0,483,9.6,693.5,55c344.3,74.1,578.7,174.6,722.2,313.2l114.8,110v279.8c0,153-4.8,279.8-12,279.8s-69.4-33.5-141.1-71.7c-308.5-174.6-703-263-1257.8-279.8c-609.8-19.1-1112,71.7-1477.8,270.2c-81.3,45.4-155.4,81.3-160.2,81.3C3475.1-1342.8,3470.3-1469.6,3470.3-1622.6z"/><path d="M8025.8-2242c-346.7-38.3-743.7-148.3-932.6-260.7c-126.7-74.1-251.1-212.8-251.1-282.2c0-296.5,731.7-566.8,1530.4-566.8c786.7,0,1516.1,270.2,1516.1,562c0,196.1-358.7,401.7-875.2,502.2C8819.7-2249.1,8214.7-2222.8,8025.8-2242z"/><path d="M103.3-2583.9l7.2-287l83.7-86.1c416.1-430.4,1848.5-528.5,2601.7-179.4c322.8,150.7,363.5,212.9,363.5,569.1c0,150.7-7.2,267.8-16.7,263c-208-105.2-456.7-212.8-569.1-243.9c-738.9-198.5-1767.2-124.4-2302.8,167.4c-81.3,45.4-155.4,81.3-162.6,81.3C100.9-2299.4,98.6-2428.5,103.3-2583.9z"/><path d="M3470.3-2567.2c0-353.9,31.1-404.1,346.7-557.2c755.7-368.3,2223.9-267.8,2625.7,177l88.5,98v277.4c0,153-7.2,272.6-16.7,267.8c-12-4.8-83.7-40.6-162.6-81.3c-552.4-289.4-1563.9-358.7-2295.7-162.6c-112.4,31.1-361.1,138.7-566.7,243.9C3477.5-2299.4,3470.3-2416.5,3470.3-2567.2z"/><path d="M103.3-3538.1l7.2-289.4l83.7-86.1c423.3-440,1910.7-530.9,2642.4-162.6c289.4,145.9,322.8,205.6,322.8,552.4c0,150.6-7.2,267.8-16.7,263c-540.4-275-877.6-353.9-1520.9-353.9c-633.7,2.4-935,71.7-1506.5,353.9C103.3-3255.9,98.6-3380.2,103.3-3538.1z"/><path d="M3470.3-3523.7c0-346.8,33.5-406.5,322.8-552.4c691.1-346.7,2085.2-289.4,2594.6,107.6c124.4,98,143.5,155.4,143.5,444.8c0,150.6-7.2,267.8-16.7,263c-538-275-875.2-353.9-1513.7-353.9c-638.5,0-975.6,78.9-1511.3,353.9C3477.5-3255.9,3470.3-3373.1,3470.3-3523.7z"/><path d="M6842.1-3518.9c0-356.3,28.7-406.5,325.2-557.2c727-368.3,2216.7-277.4,2640,162.6l83.7,86.1l7.2,289.4c4.8,157.8,0,282.2-12,277.4c-581.1-287-870.4-353.9-1520.9-353.9c-542.8,0-987.6,86.1-1315.2,258.3c-95.7,47.8-179.4,90.9-188.9,95.7C6849.2-3255.9,6842.1-3370.7,6842.1-3518.9z"/></g></g>
</svg>