<!-- icon666.com - MILLIONS vector ICONS FREE --><svg id="Layer_3" viewBox="0 0 48 48" xmlns="http://www.w3.org/2000/svg" data-name="Layer 3"><path d="m31 9.25h-14a2.7528 2.7528 0 0 0 -2.75 2.75v24a2.7528 2.7528 0 0 0 2.75 2.75h14a2.7528 2.7528 0 0 0 2.75-2.75v-24a2.7528 2.7528 0 0 0 -2.75-2.75zm-15.25 2.75a1.2511 1.2511 0 0 1 1.25-1.25h14a1.2511 1.2511 0 0 1 1.25 1.25v19.25h-16.5zm8.25 23.75a.75.75 0 1 1 .75-.75.75.75 0 0 1 -.75.75z"></path><circle cx="20" cy="17" r=".75"></circle><circle cx="24" cy="17" r=".75"></circle><circle cx="28" cy="17" r=".75"></circle><circle cx="20" cy="21" r=".75"></circle><circle cx="24" cy="21" r=".75"></circle><circle cx="28" cy="21" r=".75"></circle><circle cx="20" cy="25" r=".75"></circle><circle cx="24" cy="25" r=".75"></circle><circle cx="28" cy="25" r=".75"></circle></svg>