<!-- icon666.com - MILLIONS vector ICONS FREE --><svg viewBox="0 0 60 60" xmlns="http://www.w3.org/2000/svg"><g id="Page-1" fill="none" fill-rule="evenodd"><g id="018---Inspect-Box" fill="rgb(0,0,0)" fill-rule="nonzero"><path id="Shape" d="m3 48h18.537c5.8642987 8.2972526 17.2350595 10.4812545 25.756 4.947l5.88 5.88c1.5748565 1.4778452 4.038467 1.4387098 5.5655884-.0884116s1.5662568-3.9907319.0884116-5.5655884l-5.88-5.88c2.5594952-3.8856661 3.5623387-8.5924972 2.809-13.184.1534687-.3500248.2363847-.7268848.244-1.109v-30c0-1.65685425-1.3431458-3-3-3h-37c-.7821231-.00309416-1.533485.30442831-2.089.855l-13.12 12.12c-.51280354.549085-.7958542 1.273709-.791 2.025v30c0 1.6568542 1.34314575 3 3 3zm15.051-10c.0686115 1.3524249.2828497 2.6935094.639 4h-12.69v-4zm39.362 16.587c.7262072.7890197.7009029 2.0103747-.0573612 2.7686388s-1.9796191.7835684-2.7686388.0573612l-5.651-5.65c1.0387328-.8407335 1.9862665-1.7882672 2.827-2.827zm-20.413-.587c-9.3888407 0-17-7.6111593-17-17s7.6111593-17 17-17 17 7.6111593 17 17c-.010471 9.3845001-7.6154999 16.989529-17 17zm5.285-41.7c-.4001981-.1957114-.8395132-.2982753-1.285-.3h-36.209l4.33-4h37.465zm1.715 7.053v-4.353c-.0017247-.4454868-.1042886-.8848019-.3-1.285l10.3-10.301v25.152c-2.0892346-4.1945343-5.6486468-7.4738208-10-9.213zm-28.694-17.065c.183311-.18524278.4333915-.28902259.694-.288l36.586-.00000749-4 4.00000749h-37.3zm-12.306 11.712h38c.5522847 0 1 .4477153 1 1v3.69c-5.5397161-1.5391305-11.4787762-.4741797-16.1385736 2.8938562s-7.5340658 8.6732349-7.8104264 14.4161438h-12.051c-1.1045695 0-2 .8954305-2 2v4c0 1.1045695.8954305 2 2 2h13.353c.267482.6840032.5746714 1.3518062.92 2h-17.273c-.55228475 0-1-.4477153-1-1v-30c-.00160876-.2657064.10323139-.5209961.29111764-.7088824.18788625-.1878862.44317595-.2927264.70888236-.2911176z"></path><path id="Shape" d="m37 22c-8.2842712 0-15 6.7157288-15 15s6.7157288 15 15 15 15-6.7157288 15-15c-.0093685-8.2803876-6.7196124-14.9906315-15-15zm0 28c-7.1797017 0-13-5.8202983-13-13s5.8202983-13 13-13 13 5.8202983 13 13c-.008266 7.1762751-5.8237249 12.991734-13 13z"></path><path id="Shape" d="m29 33c.2651948-.0000566.5195073-.1054506.707-.293l2-2c.3789722-.3923789.3735524-1.0160848-.0121814-1.4018186s-1.0094397-.3911536-1.4018186-.0121814l-2 2c-.2859079.2859943-.3714219.7160366-.216678 1.0896546.1547439.3736179.5192821.6172591.923678.6173454z"></path><path id="Shape" d="m35.293 29.293-7 7c-.2599566.2510745-.3642126.6228779-.2726972.9725073.0915155.3496295.3645604.6226744.7141899.7141899.3496294.0915154.7214328-.0127406.9725073-.2726972l7-7c.3789722-.3923789.3735524-1.0160848-.0121814-1.4018186s-1.0094397-.3911536-1.4018186-.0121814z"></path></g></g></svg>