<!-- icon666.com - MILLIONS vector ICONS FREE --><svg id="Layer_3" viewBox="0 0 48 48" xmlns="http://www.w3.org/2000/svg" data-name="Layer 3"><circle cx="21" cy="17" r="7.75"></circle><path d="m32.75 30v5.5a2.2534 2.2534 0 0 1 -2.25 2.25h-19a2.2534 2.2534 0 0 1 -2.25-2.25v-5.5a6.7456 6.7456 0 0 1 5.13-6.54 9.2488 9.2488 0 0 0 13.24 0 6.7456 6.7456 0 0 1 5.13 6.54z"></path><path d="m38.689 21.7146a.7093.7093 0 0 0 -.159-.2446l-3-3a.75.75 0 1 0 -1.06 1.06l1.72 1.72h-6.19a.75.75 0 0 0 0 1.5h6.19l-1.72 1.72a.75.75 0 0 0 0 1.0605.7676.7676 0 0 0 1.0606 0l3-3a.774.774 0 0 0 .1584-.8159z"></path></svg>